<svg xmlns="http://www.w3.org/2000/svg"><symbol id="aa-plus" viewBox="0 0 24 24" fill="none" stroke="currentColor" stroke-width="1.6" stroke-linecap="round" stroke-linejoin="round"><path d="M12 5v14M5 12h14"/></symbol><symbol id="aa-search" viewBox="0 0 24 24" fill="none" stroke="currentColor" stroke-width="1.6" stroke-linecap="round" stroke-linejoin="round"><circle cx="10.5" cy="10.5" r="6.5"/><path d="m16 16 4.5 4.5"/></symbol><symbol id="aa-folder" viewBox="0 0 24 24" fill="none" stroke="currentColor" stroke-width="1.6" stroke-linecap="round" stroke-linejoin="round"><path d="M3 7V5a1 1 0 0 1 1-1h5l2 3h9a1 1 0 0 1 1 1v11a1 1 0 0 1-1 1H4a1 1 0 0 1-1-1Z"/></symbol><symbol id="aa-chevron-down" viewBox="0 0 24 24" fill="none" stroke="currentColor" stroke-width="1.6" stroke-linecap="round" stroke-linejoin="round"><path d="m7 10 5 5 5-5"/></symbol><symbol id="aa-chevron-right" viewBox="0 0 24 24" fill="none" stroke="currentColor" stroke-width="1.6" stroke-linecap="round" stroke-linejoin="round"><path d="m9 6 6 6-6 6"/></symbol><symbol id="aa-chevron-left" viewBox="0 0 24 24" fill="none" stroke="currentColor" stroke-width="1.6" stroke-linecap="round" stroke-linejoin="round"><path d="m15 6-6 6 6 6"/></symbol><symbol id="aa-arrow-up" viewBox="0 0 24 24" fill="none" stroke="currentColor" stroke-width="1.6" stroke-linecap="round" stroke-linejoin="round"><path d="M12 19V5m-6 6 6-6 6 6"/></symbol><symbol id="aa-arrow-right" viewBox="0 0 24 24" fill="none" stroke="currentColor" stroke-width="1.6" stroke-linecap="round" stroke-linejoin="round"><path d="M5 12h14m-6-6 6 6-6 6"/></symbol><symbol id="aa-check" viewBox="0 0 24 24" fill="none" stroke="currentColor" stroke-width="1.6" stroke-linecap="round" stroke-linejoin="round"><path d="m5 12 4 4L19 6"/></symbol><symbol id="aa-close" viewBox="0 0 24 24" fill="none" stroke="currentColor" stroke-width="1.6" stroke-linecap="round" stroke-linejoin="round"><path d="m6 6 12 12M18 6 6 18"/></symbol><symbol id="aa-pause" viewBox="0 0 24 24" fill="none" stroke="currentColor" stroke-width="1.6" stroke-linecap="round" stroke-linejoin="round"><path d="M8 5v14M16 5v14"/></symbol><symbol id="aa-stop" viewBox="0 0 24 24" fill="none" stroke="currentColor" stroke-width="1.6" stroke-linecap="round" stroke-linejoin="round"><rect x="6" y="6" width="12" height="12" rx="1" fill="currentColor" stroke="none"/></symbol><symbol id="aa-play" viewBox="0 0 24 24" fill="none" stroke="currentColor" stroke-width="1.6" stroke-linecap="round" stroke-linejoin="round"><path d="m8 5 11 7-11 7Z"/></symbol><symbol id="aa-plan" viewBox="0 0 24 24" fill="none" stroke="currentColor" stroke-width="1.6" stroke-linecap="round" stroke-linejoin="round"><path d="M9 6h11M9 12h11M9 18h11"/><circle cx="4" cy="6" r="1"/><circle cx="4" cy="12" r="1"/><circle cx="4" cy="18" r="1"/></symbol><symbol id="aa-image" viewBox="0 0 24 24" fill="none" stroke="currentColor" stroke-width="1.6" stroke-linecap="round" stroke-linejoin="round"><rect x="3" y="3" width="18" height="18" rx="3"/><circle cx="8" cy="8" r="1.5"/><path d="m3 17 6-6 4 4 3-3 5 5"/></symbol><symbol id="aa-attachment" viewBox="0 0 24 24" fill="none" stroke="currentColor" stroke-width="1.6" stroke-linecap="round" stroke-linejoin="round"><path d="m8 15 8-8a3 3 0 0 1 4 4L9 22a5 5 0 0 1-7-7L14 3a2 2 0 0 1 3 3L6 17"/></symbol><symbol id="aa-panel" viewBox="0 0 24 24" fill="none" stroke="currentColor" stroke-width="1.6" stroke-linecap="round" stroke-linejoin="round"><rect x="3" y="4" width="18" height="16" rx="2"/><path d="M14 4v16"/></symbol><symbol id="aa-pin" viewBox="0 0 24 24" fill="none" stroke="currentColor" stroke-width="1.6" stroke-linecap="round" stroke-linejoin="round"><path d="M9 3h6l-1 6 4 4H6l4-4-1-6Zm3 10v8"/></symbol><symbol id="aa-globe" viewBox="0 0 24 24" fill="none" stroke="currentColor" stroke-width="1.6" stroke-linecap="round" stroke-linejoin="round"><circle cx="12" cy="12" r="9"/><ellipse cx="12" cy="12" rx="4" ry="9"/><path d="M3 12h18"/></symbol><symbol id="aa-server" viewBox="0 0 24 24" fill="none" stroke="currentColor" stroke-width="1.6" stroke-linecap="round" stroke-linejoin="round"><rect x="3" y="3" width="18" height="7" rx="2"/><rect x="3" y="14" width="18" height="7" rx="2"/><path d="M7 6.5h.1M7 17.5h.1M12 6.5h5M12 17.5h5"/></symbol><symbol id="aa-moon" viewBox="0 0 24 24" fill="none" stroke="currentColor" stroke-width="1.6" stroke-linecap="round" stroke-linejoin="round"><path d="M20 14A8 8 0 0 1 10 4 9 9 0 1 0 20 14Z"/></symbol><symbol id="aa-sun" viewBox="0 0 24 24" fill="none" stroke="currentColor" stroke-width="1.6" stroke-linecap="round" stroke-linejoin="round"><circle cx="12" cy="12" r="4"/><path d="M12 2v2M12 20v2M2 12h2M20 12h2M5 5l1.5 1.5M17.5 17.5 1.5 1.5M5 19l1.5-1.5M17.5 6.5 1.5-1.5"/></symbol><symbol id="aa-alert" viewBox="0 0 24 24" fill="none" stroke="currentColor" stroke-width="1.6" stroke-linecap="round" stroke-linejoin="round"><path d="m12 3 10 18H2L12 3Z"/><path d="M12 9v5m0 3h.01"/></symbol><symbol id="aa-settings" viewBox="0 0 24 24" fill="none" stroke="currentColor" stroke-width="1.6" stroke-linecap="round" stroke-linejoin="round"><path d="M4 7h16M4 17h16"/><circle cx="9" cy="7" r="3" fill="var(--aa-bg,#fff)"/><circle cx="15" cy="17" r="3" fill="var(--aa-bg,#fff)"/></symbol><symbol id="aa-edit" viewBox="0 0 24 24" fill="none" stroke="currentColor" stroke-width="1.6" stroke-linecap="round" stroke-linejoin="round"><path d="m4 16 12-12 4 4L8 20H4v-4ZM14 6l4 4"/></symbol><symbol id="aa-fit" viewBox="0 0 24 24" fill="none" stroke="currentColor" stroke-width="1.6" stroke-linecap="round" stroke-linejoin="round"><path d="M8 3H3v5m13-5h5v5M3 16v5h5m13-5v5h-5"/></symbol><symbol id="aa-undo" viewBox="0 0 24 24" fill="none" stroke="currentColor" stroke-width="1.6" stroke-linecap="round" stroke-linejoin="round"><path d="m8 5-5 5 5 5M3 10h10a7 7 0 0 1 7 7"/></symbol><symbol id="aa-download" viewBox="0 0 24 24" fill="none" stroke="currentColor" stroke-width="1.6" stroke-linecap="round" stroke-linejoin="round"><path d="M12 3v12m-5-5 5 5 5-5M4 17v4h16v-4"/></symbol><symbol id="aa-more" viewBox="0 0 24 24" fill="none" stroke="currentColor" stroke-width="1.6" stroke-linecap="round" stroke-linejoin="round"><circle cx="5" cy="12" r="1"/><circle cx="12" cy="12" r="1"/><circle cx="19" cy="12" r="1"/></symbol></svg>